<?xml version="1.0" encoding="utf-8"?>
<svg version="1.1" xmlns:xlink="http://www.w3.org/1999/xlink" width="24px" height="17px" xmlns="http://www.w3.org/2000/svg">
  <g transform="matrix(1 0 0 1 -603 -3531 )">
    <path d="M 9.52508361204013 4.84365079365079  L 9.52508361204013 11.6301587301587  L 16 8.25714285714286  L 9.52508361204013 4.84365079365079  Z M 3.61204013377926 0.242857142857142  C 5.85061315496098 0.0809523809523807  8.64659977703456 0  12 0  C 13.4983277591973 0  14.9453734671126 0.0202380952380952  16.3411371237458 0.0607142857142855  C 17.736900780379 0.101190476190476  18.7603121516165 0.143915343915343  19.4113712374582 0.188888888888888  L 20.3879598662207 0.242857142857142  C 20.396878483835 0.242857142857142  20.4726867335563 0.249603174603174  20.6153846153846 0.263095238095237  C 20.7580824972129 0.276587301587302  20.860646599777 0.290079365079366  20.9230769230769 0.303571428571429  C 20.9855072463768 0.317063492063493  21.0903010033445 0.337301587301588  21.2374581939799 0.364285714285715  C 21.3846153846154 0.391269841269842  21.5117056856187 0.427248677248675  21.61872909699 0.472222222222222  C 21.7257525083612 0.517195767195766  21.850613154961 0.575661375661373  21.9933110367893 0.647619047619047  C 22.1360089186176 0.719576719576718  22.2742474916388 0.807275132275132  22.4080267558528 0.910714285714286  C 22.5418060200669 1.01415343915344  22.6711259754738 1.13333333333333  22.7959866220736 1.26825396825397  C 22.8494983277592 1.32222222222222  22.9186176142698 1.40542328042328  23.0033444816054 1.51785714285714  C 23.0880713489409 1.630291005291  23.2173913043478 1.89338624338624  23.3913043478261 2.30714285714286  C 23.5652173913044 2.72089947089947  23.6833890746934 3.17513227513227  23.7458193979933 3.66984126984127  C 23.8171683389075 4.24550264550265  23.8729096989967 4.85939153439153  23.9130434782609 5.51150793650794  C 23.9531772575251 6.16362433862434  23.9777034559643 6.67407407407407  23.9866220735786 7.04285714285714  L 23.9866220735786 7.58253968253968  L 23.9866220735786 9.41746031746032  C 23.9955406911929 10.7216931216931  23.9152731326644 12.0259259259259  23.7458193979933 13.3301587301587  C 23.6833890746934 13.8248677248677  23.5719063545151 14.2723544973545  23.4113712374582 14.672619047619  C 23.2508361204013 15.0728835978836  23.108138238573 15.3494708994709  22.9832775919732 15.502380952381  L 22.7959866220736 15.731746031746  C 22.6711259754738 15.8666666666667  22.5418060200669 15.9858465608466  22.4080267558528 16.0892857142857  C 22.2742474916388 16.1927248677249  22.1360089186176 16.2781746031746  21.9933110367893 16.3456349206349  C 21.850613154961 16.4130952380952  21.7257525083612 16.4693121693122  21.61872909699 16.5142857142857  C 21.5117056856187 16.5592592592593  21.3846153846154 16.5952380952381  21.2374581939799 16.6222222222222  C 21.0903010033445 16.6492063492063  20.9832775919732 16.6694444444444  20.9163879598662 16.6829365079365  C 20.8494983277592 16.6964285714286  20.7469342251951 16.7099206349206  20.6086956521739 16.7234126984127  C 20.4704570791527 16.7369047619048  20.396878483835 16.7436507936508  20.3879598662207 16.7436507936508  C 18.149386845039 16.9145502645503  15.3534002229654 17  12 17  C 10.1538461538462 16.9820105820106  8.55072463768116 16.9527777777778  7.19063545150502 16.9123015873016  C 5.83054626532887 16.8718253968254  4.93645484949833 16.8380952380952  4.50836120401338 16.8111111111111  L 3.85284280936455 16.7571428571429  L 3.37123745819398 16.7031746031746  C 3.05016722408027 16.6582010582011  2.80713489409142 16.6132275132275  2.64214046822742 16.568253968254  C 2.47714604236343 16.5232804232804  2.24972129319955 16.428835978836  1.95986622073579 16.2849206349206  C 1.67001114827202 16.1410052910053  1.4180602006689 15.9566137566138  1.20401337792642 15.731746031746  C 1.1505016722408 15.6777777777778  1.08138238573021 15.5945767195767  0.996655518394649 15.4821428571429  C 0.911928651059086 15.369708994709  0.782608695652174 15.1066137566138  0.608695652173913 14.6928571428571  C 0.434782608695652 14.2791005291005  0.316610925306577 13.8248677248677  0.254180602006689 13.3301587301587  C 0.182831661092531 12.7544973544974  0.127090301003345 12.1406084656085  0.0869565217391304 11.4884920634921  C 0.0468227424749164 10.8363756613757  0.0222965440356745 10.3259259259259  0.0133779264214047 9.95714285714286  L 0.0133779264214047 9.41746031746032  L 0.0133779264214047 7.58253968253968  C 0.00445930880713489 6.27830687830688  0.084726867335563 4.97407407407407  0.254180602006689 3.66984126984127  C 0.316610925306577 3.17513227513227  0.42809364548495 2.7276455026455  0.588628762541806 2.32738095238095  C 0.749163879598662 1.9271164021164  0.891861761426979 1.6505291005291  1.01672240802676 1.49761904761905  L 1.20401337792642 1.26825396825397  C 1.3288740245262 1.13333333333333  1.45819397993311 1.01415343915344  1.59197324414716 0.910714285714286  C 1.7257525083612 0.807275132275132  1.86399108138239 0.719576719576718  2.0066889632107 0.647619047619047  C 2.14938684503902 0.575661375661373  2.2742474916388 0.517195767195766  2.38127090301003 0.472222222222222  C 2.48829431438127 0.427248677248675  2.61538461538462 0.391269841269842  2.76254180602007 0.364285714285715  C 2.90969899665552 0.337301587301588  3.01449275362319 0.317063492063493  3.07692307692308 0.303571428571429  C 3.13935340022297 0.290079365079366  3.24191750278707 0.276587301587302  3.38461538461538 0.263095238095237  C 3.5273132664437 0.249603174603174  3.603121516165 0.242857142857142  3.61204013377926 0.242857142857142  Z " fill-rule="nonzero" fill="#ffffff" stroke="none" transform="matrix(1 0 0 1 603 3531 )" />
  </g>
</svg>