<?xml version="1.0" encoding="utf-8"?>
<svg version="1.1" xmlns:xlink="http://www.w3.org/1999/xlink" width="134px" height="134px" xmlns="http://www.w3.org/2000/svg">
  <defs>
    <filter x="944px" y="2367px" width="134px" height="134px" filterUnits="userSpaceOnUse" id="filter146">
      <feOffset dx="-2" dy="2" in="SourceAlpha" result="shadowOffsetInner" />
      <feGaussianBlur stdDeviation="1" in="shadowOffsetInner" result="shadowGaussian" />
      <feComposite in2="shadowGaussian" operator="atop" in="SourceAlpha" result="shadowComposite" />
      <feColorMatrix type="matrix" values="0 0 0 0 0  0 0 0 0 0  0 0 0 0 0  0 0 0 0.349019607843137 0  " in="shadowComposite" />
    </filter>
    <g id="widget147">
      <path d="M 1013 2369  C 1048.28 2369  1076 2396.72  1076 2432  C 1076 2467.28  1048.28 2495  1013 2495  C 977.72 2495  950 2467.28  950 2432  C 950 2396.72  977.72 2369  1013 2369  Z " fill-rule="nonzero" fill="#ffffff" stroke="none" />
      <path d="M 1013 2368.5  C 1048.56 2368.5  1076.5 2396.44  1076.5 2432  C 1076.5 2467.56  1048.56 2495.5  1013 2495.5  C 977.44 2495.5  949.5 2467.56  949.5 2432  C 949.5 2396.44  977.44 2368.5  1013 2368.5  Z " stroke-width="3" stroke="#2699fb" fill="none" />
    </g>
  </defs>
  <g transform="matrix(1 0 0 1 -944 -2367 )">
    <use xlink:href="#widget147" filter="url(#filter146)" />
    <use xlink:href="#widget147" />
  </g>
</svg>