<?xml version="1.0" encoding="utf-8"?>
<svg version="1.1" xmlns:xlink="http://www.w3.org/1999/xlink" width="96px" height="96px" xmlns="http://www.w3.org/2000/svg">
  <defs>
    <filter x="137px" y="4093px" width="96px" height="96px" filterUnits="userSpaceOnUse" id="filter161">
      <feOffset dx="-2" dy="2" in="SourceAlpha" result="shadowOffsetInner" />
      <feGaussianBlur stdDeviation="1" in="shadowOffsetInner" result="shadowGaussian" />
      <feComposite in2="shadowGaussian" operator="atop" in="SourceAlpha" result="shadowComposite" />
      <feColorMatrix type="matrix" values="0 0 0 0 0  0 0 0 0 0  0 0 0 0 0  0 0 0 0.349019607843137 0  " in="shadowComposite" />
    </filter>
    <g id="widget162">
      <path d="M 187 4095  C 211.64 4095  231 4114.36  231 4139  C 231 4163.64  211.64 4183  187 4183  C 162.36 4183  143 4163.64  143 4139  C 143 4114.36  162.36 4095  187 4095  Z " fill-rule="nonzero" fill="#ffffff" stroke="none" />
      <path d="M 187 4094.5  C 211.92 4094.5  231.5 4114.08  231.5 4139  C 231.5 4163.92  211.92 4183.5  187 4183.5  C 162.08 4183.5  142.5 4163.92  142.5 4139  C 142.5 4114.08  162.08 4094.5  187 4094.5  Z " stroke-width="3" stroke="#2699fb" fill="none" />
    </g>
  </defs>
  <g transform="matrix(1 0 0 1 -137 -4093 )">
    <use xlink:href="#widget162" filter="url(#filter161)" />
    <use xlink:href="#widget162" />
  </g>
</svg>