<?xml version="1.0" encoding="utf-8"?>
<svg version="1.1" xmlns:xlink="http://www.w3.org/1999/xlink" width="14px" height="17px" xmlns="http://www.w3.org/2000/svg">
  <g transform="matrix(1 0 0 1 -259 -1086 )">
    <path d="M 10.5364583333333 0.645089285714286  L 13.3802083333333 3.60491071428571  C 13.5503472222222 3.78199404761905  13.6961805555556 4.02232142857143  13.8177083333333 4.32589285714286  C 13.9392361111111 4.62946428571429  14 4.90773809523809  14 5.16071428571429  L 14 16.0892857142857  C 14 16.3422619047619  13.9149305555556 16.5572916666667  13.7447916666667 16.734375  C 13.5746527777778 16.9114583333333  13.3680555555556 17  13.125 17  L 0.875 17  C 0.631944444444445 17  0.425347222222222 16.9114583333333  0.255208333333333 16.734375  C 0.0850694444444444 16.5572916666667  0 16.3422619047619  0 16.0892857142857  L 0 0.910714285714286  C 0 0.657738095238095  0.0850694444444444 0.442708333333333  0.255208333333333 0.265625  C 0.425347222222222 0.0885416666666673  0.631944444444445 0  0.875 0  L 9.04166666666667 0  C 9.28472222222222 0  9.55208333333333 0.0632440476190483  9.84375 0.189732142857143  C 10.1354166666667 0.316220238095238  10.3663194444444 0.468005952380952  10.5364583333333 0.645089285714286  Z M 9.70703125 1.49888392857143  C 9.63411458333333 1.42299107142857  9.50954861111111 1.35342261904762  9.33333333333333 1.29017857142857  L 9.33333333333333 4.85714285714286  L 12.7604166666667 4.85714285714286  C 12.6996527777778 4.67373511904762  12.6328125 4.54408482142857  12.5598958333333 4.46819196428571  L 9.70703125 1.49888392857143  Z M 1.16666666666667 15.7857142857143  L 12.8333333333333 15.7857142857143  L 12.8333333333333 6.07142857142857  L 9.04166666666667 6.07142857142857  C 8.79861111111111 6.07142857142857  8.59201388888889 5.9828869047619  8.421875 5.80580357142857  C 8.25173611111111 5.62872023809524  8.16666666666667 5.41369047619047  8.16666666666667 5.16071428571429  L 8.16666666666667 1.21428571428571  L 1.16666666666667 1.21428571428571  L 1.16666666666667 15.7857142857143  Z M 8.75 8.5  L 11.6666666666667 11.5357142857143  L 11.6666666666667 14.5714285714286  L 2.33333333333333 14.5714285714286  L 2.33333333333333 12.75  L 4.08333333333333 10.9285714285714  L 5.25 12.1428571428571  L 8.75 8.5  Z M 5.32291666666667 9.18303571428571  C 4.98263888888889 9.53720238095238  4.56944444444444 9.71428571428571  4.08333333333333 9.71428571428571  C 3.59722222222222 9.71428571428571  3.18402777777778 9.53720238095238  2.84375 9.18303571428571  C 2.50347222222222 8.82886904761905  2.33333333333333 8.39880952380952  2.33333333333333 7.89285714285714  C 2.33333333333333 7.38690476190476  2.50347222222222 6.95684523809524  2.84375 6.60267857142857  C 3.18402777777778 6.2485119047619  3.59722222222222 6.07142857142857  4.08333333333333 6.07142857142857  C 4.56944444444444 6.07142857142857  4.98263888888889 6.2485119047619  5.32291666666667 6.60267857142857  C 5.66319444444444 6.95684523809524  5.83333333333333 7.38690476190476  5.83333333333333 7.89285714285714  C 5.83333333333333 8.39880952380952  5.66319444444444 8.82886904761905  5.32291666666667 9.18303571428571  Z " fill-rule="nonzero" fill="#2699fb" stroke="none" transform="matrix(1 0 0 1 259 1086 )" />
  </g>
</svg>