<?xml version="1.0" encoding="utf-8"?>
<svg version="1.1" xmlns:xlink="http://www.w3.org/1999/xlink" width="14px" height="14px" viewBox="721 569  14 14" xmlns="http://www.w3.org/2000/svg">
  <path d="M 721.5 571  A 1.5 1.5 0 0 1 723 569.5 L 733 569.5  A 1.5 1.5 0 0 1 734.5 571 L 734.5 581  A 1.5 1.5 0 0 1 733 582.5 L 723 582.5  A 1.5 1.5 0 0 1 721.5 581 L 721.5 571  Z " fill-rule="nonzero" fill="#ffffff" stroke="none" />
  <path d="M 721.5 571  A 1.5 1.5 0 0 1 723 569.5 L 733 569.5  A 1.5 1.5 0 0 1 734.5 571 L 734.5 581  A 1.5 1.5 0 0 1 733 582.5 L 723 582.5  A 1.5 1.5 0 0 1 721.5 581 L 721.5 571  Z " stroke-width="1" stroke="#2699fb" fill="none" />
</svg>