<?xml version="1.0" encoding="utf-8"?>
<svg version="1.1" xmlns:xlink="http://www.w3.org/1999/xlink" width="14px" height="14px" viewBox="57 1131  14 14" xmlns="http://www.w3.org/2000/svg">
  <path d="M 57.5 1133  A 1.5 1.5 0 0 1 59 1131.5 L 69 1131.5  A 1.5 1.5 0 0 1 70.5 1133 L 70.5 1143  A 1.5 1.5 0 0 1 69 1144.5 L 59 1144.5  A 1.5 1.5 0 0 1 57.5 1143 L 57.5 1133  Z " fill-rule="nonzero" fill="#f0f0f0" stroke="none" />
  <path d="M 57.5 1133  A 1.5 1.5 0 0 1 59 1131.5 L 69 1131.5  A 1.5 1.5 0 0 1 70.5 1133 L 70.5 1143  A 1.5 1.5 0 0 1 69 1144.5 L 59 1144.5  A 1.5 1.5 0 0 1 57.5 1143 L 57.5 1133  Z " stroke-width="1" stroke="#2699fb" fill="none" />
  <path d="M 60.5 1138.5  L 63.5 1141.5  " stroke-width="3" stroke="#2699fb" fill="none" />
  <path d="M 63.5 1141.5  L 68.5 1134.5  " stroke-width="3" stroke="#2699fb" fill="none" />
</svg>